<?xml version="1.0" encoding="utf-8" standalone="no"?>
<!DOCTYPE svg PUBLIC "-//W3C//DTD SVG 1.1//EN"
  "http://www.w3.org/Graphics/SVG/1.1/DTD/svg11.dtd">
<svg xmlns:xlink="http://www.w3.org/1999/xlink" width="1717.498864pt" height="435.087258pt" viewBox="0 0 1717.498864 435.087258" xmlns="http://www.w3.org/2000/svg" version="1.1">
 <metadata>
  <rdf:RDF xmlns:dc="http://purl.org/dc/elements/1.1/" xmlns:cc="http://creativecommons.org/ns#" xmlns:rdf="http://www.w3.org/1999/02/22-rdf-syntax-ns#">
   <cc:Work>
    <dc:type rdf:resource="http://purl.org/dc/dcmitype/StillImage"/>
    <dc:date>2024-02-29T18:02:57.088374</dc:date>
    <dc:format>image/svg+xml</dc:format>
    <dc:creator>
     <cc:Agent>
      <dc:title>Matplotlib v3.6.2, https://matplotlib.org/</dc:title>
     </cc:Agent>
    </dc:creator>
   </cc:Work>
  </rdf:RDF>
 </metadata>
 <defs>
  <style type="text/css">*{stroke-linejoin: round; stroke-linecap: butt}</style>
 </defs>
 <g id="figure_1">
  <g id="patch_1">
   <path d="M 0 435.087258 
L 1717.498864 435.087258 
L 1717.498864 0 
L 0 0 
z
" style="fill: #ffffff"/>
  </g>
  <g id="axes_1">
   <g id="patch_2">
    <path d="M 34.6625 234.359935 
L 453.571591 234.359935 
L 453.571591 20.798438 
L 34.6625 20.798438 
z
" style="fill: #ffffff"/>
   </g>
   <g id="matplotlib.axis_1">
    <g id="xtick_1">
     <g id="line2d_1">
      <defs>
       <path id="m573bbfd4ee" d="M 0 0 
L 0 3.5 
" style="stroke: #000000; stroke-width: 0.8"/>
      </defs>
      <g>
       <use xlink:href="#m573bbfd4ee" x="79.838971" y="234.359935" style="stroke: #000000; stroke-width: 0.8"/>
      </g>
     </g>
     <g id="text_1">
      <!-- −4 -->
      <g transform="translate(72.467877 248.958372) scale(0.1 -0.1)">
       <defs>
        <path id="DejaVuSans-2212" d="M 678 2272 
L 4684 2272 
L 4684 1741 
L 678 1741 
L 678 2272 
z
" transform="scale(0.015625)"/>
        <path id="DejaVuSans-34" d="M 2419 4116 
L 825 1625 
L 2419 1625 
L 2419 4116 
z
M 2253 4666 
L 3047 4666 
L 3047 1625 
L 3713 1625 
L 3713 1100 
L 3047 1100 
L 3047 0 
L 2419 0 
L 2419 1100 
L 313 1100 
L 313 1709 
L 2253 4666 
z
" transform="scale(0.015625)"/>
       </defs>
       <use xlink:href="#DejaVuSans-2212"/>
       <use xlink:href="#DejaVuSans-34" x="83.789062"/>
      </g>
     </g>
    </g>
    <g id="xtick_2">
     <g id="line2d_2">
      <g>
       <use xlink:href="#m573bbfd4ee" x="161.978008" y="234.359935" style="stroke: #000000; stroke-width: 0.8"/>
      </g>
     </g>
     <g id="text_2">
      <!-- −2 -->
      <g transform="translate(154.606914 248.958372) scale(0.1 -0.1)">
       <defs>
        <path id="DejaVuSans-32" d="M 1228 531 
L 3431 531 
L 3431 0 
L 469 0 
L 469 531 
Q 828 903 1448 1529 
Q 2069 2156 2228 2338 
Q 2531 2678 2651 2914 
Q 2772 3150 2772 3378 
Q 2772 3750 2511 3984 
Q 2250 4219 1831 4219 
Q 1534 4219 1204 4116 
Q 875 4013 500 3803 
L 500 4441 
Q 881 4594 1212 4672 
Q 1544 4750 1819 4750 
Q 2544 4750 2975 4387 
Q 3406 4025 3406 3419 
Q 3406 3131 3298 2873 
Q 3191 2616 2906 2266 
Q 2828 2175 2409 1742 
Q 1991 1309 1228 531 
z
" transform="scale(0.015625)"/>
       </defs>
       <use xlink:href="#DejaVuSans-2212"/>
       <use xlink:href="#DejaVuSans-32" x="83.789062"/>
      </g>
     </g>
    </g>
    <g id="xtick_3">
     <g id="line2d_3">
      <g>
       <use xlink:href="#m573bbfd4ee" x="244.117045" y="234.359935" style="stroke: #000000; stroke-width: 0.8"/>
      </g>
     </g>
     <g id="text_3">
      <!-- 0 -->
      <g transform="translate(240.935795 248.958372) scale(0.1 -0.1)">
       <defs>
        <path id="DejaVuSans-30" d="M 2034 4250 
Q 1547 4250 1301 3770 
Q 1056 3291 1056 2328 
Q 1056 1369 1301 889 
Q 1547 409 2034 409 
Q 2525 409 2770 889 
Q 3016 1369 3016 2328 
Q 3016 3291 2770 3770 
Q 2525 4250 2034 4250 
z
M 2034 4750 
Q 2819 4750 3233 4129 
Q 3647 3509 3647 2328 
Q 3647 1150 3233 529 
Q 2819 -91 2034 -91 
Q 1250 -91 836 529 
Q 422 1150 422 2328 
Q 422 3509 836 4129 
Q 1250 4750 2034 4750 
z
" transform="scale(0.015625)"/>
       </defs>
       <use xlink:href="#DejaVuSans-30"/>
      </g>
     </g>
    </g>
    <g id="xtick_4">
     <g id="line2d_4">
      <g>
       <use xlink:href="#m573bbfd4ee" x="326.256083" y="234.359935" style="stroke: #000000; stroke-width: 0.8"/>
      </g>
     </g>
     <g id="text_4">
      <!-- 2 -->
      <g transform="translate(323.074833 248.958372) scale(0.1 -0.1)">
       <use xlink:href="#DejaVuSans-32"/>
      </g>
     </g>
    </g>
    <g id="xtick_5">
     <g id="line2d_5">
      <g>
       <use xlink:href="#m573bbfd4ee" x="408.39512" y="234.359935" style="stroke: #000000; stroke-width: 0.8"/>
      </g>
     </g>
     <g id="text_5">
      <!-- 4 -->
      <g transform="translate(405.21387 248.958372) scale(0.1 -0.1)">
       <use xlink:href="#DejaVuSans-34"/>
      </g>
     </g>
    </g>
    <g id="text_6">
     <!-- $x$ -->
     <g transform="translate(241.117045 262.636497) scale(0.1 -0.1)">
      <defs>
       <path id="DejaVuSans-Oblique-78" d="M 3841 3500 
L 2234 1784 
L 3219 0 
L 2559 0 
L 1819 1388 
L 531 0 
L -166 0 
L 1556 1844 
L 641 3500 
L 1300 3500 
L 1972 2234 
L 3144 3500 
L 3841 3500 
z
" transform="scale(0.015625)"/>
      </defs>
      <use xlink:href="#DejaVuSans-Oblique-78" transform="translate(0 0.3125)"/>
     </g>
    </g>
   </g>
   <g id="matplotlib.axis_2">
    <g id="ytick_1">
     <g id="line2d_6">
      <defs>
       <path id="m7689f311c3" d="M 0 0 
L -3.5 0 
" style="stroke: #000000; stroke-width: 0.8"/>
      </defs>
      <g>
       <use xlink:href="#m7689f311c3" x="34.6625" y="230.252983" style="stroke: #000000; stroke-width: 0.8"/>
      </g>
     </g>
     <g id="text_7">
      <!-- 0 -->
      <g transform="translate(21.3 234.052202) scale(0.1 -0.1)">
       <use xlink:href="#DejaVuSans-30"/>
      </g>
     </g>
    </g>
    <g id="ytick_2">
     <g id="line2d_7">
      <g>
       <use xlink:href="#m7689f311c3" x="34.6625" y="189.183464" style="stroke: #000000; stroke-width: 0.8"/>
      </g>
     </g>
     <g id="text_8">
      <!-- 1 -->
      <g transform="translate(21.3 192.982683) scale(0.1 -0.1)">
       <defs>
        <path id="DejaVuSans-31" d="M 794 531 
L 1825 531 
L 1825 4091 
L 703 3866 
L 703 4441 
L 1819 4666 
L 2450 4666 
L 2450 531 
L 3481 531 
L 3481 0 
L 794 0 
L 794 531 
z
" transform="scale(0.015625)"/>
       </defs>
       <use xlink:href="#DejaVuSans-31"/>
      </g>
     </g>
    </g>
    <g id="ytick_3">
     <g id="line2d_8">
      <g>
       <use xlink:href="#m7689f311c3" x="34.6625" y="148.113946" style="stroke: #000000; stroke-width: 0.8"/>
      </g>
     </g>
     <g id="text_9">
      <!-- 2 -->
      <g transform="translate(21.3 151.913164) scale(0.1 -0.1)">
       <use xlink:href="#DejaVuSans-32"/>
      </g>
     </g>
    </g>
    <g id="ytick_4">
     <g id="line2d_9">
      <g>
       <use xlink:href="#m7689f311c3" x="34.6625" y="107.044427" style="stroke: #000000; stroke-width: 0.8"/>
      </g>
     </g>
     <g id="text_10">
      <!-- 3 -->
      <g transform="translate(21.3 110.843646) scale(0.1 -0.1)">
       <defs>
        <path id="DejaVuSans-33" d="M 2597 2516 
Q 3050 2419 3304 2112 
Q 3559 1806 3559 1356 
Q 3559 666 3084 287 
Q 2609 -91 1734 -91 
Q 1441 -91 1130 -33 
Q 819 25 488 141 
L 488 750 
Q 750 597 1062 519 
Q 1375 441 1716 441 
Q 2309 441 2620 675 
Q 2931 909 2931 1356 
Q 2931 1769 2642 2001 
Q 2353 2234 1838 2234 
L 1294 2234 
L 1294 2753 
L 1863 2753 
Q 2328 2753 2575 2939 
Q 2822 3125 2822 3475 
Q 2822 3834 2567 4026 
Q 2313 4219 1838 4219 
Q 1578 4219 1281 4162 
Q 984 4106 628 3988 
L 628 4550 
Q 988 4650 1302 4700 
Q 1616 4750 1894 4750 
Q 2613 4750 3031 4423 
Q 3450 4097 3450 3541 
Q 3450 3153 3228 2886 
Q 3006 2619 2597 2516 
z
" transform="scale(0.015625)"/>
       </defs>
       <use xlink:href="#DejaVuSans-33"/>
      </g>
     </g>
    </g>
    <g id="ytick_5">
     <g id="line2d_10">
      <g>
       <use xlink:href="#m7689f311c3" x="34.6625" y="65.974908" style="stroke: #000000; stroke-width: 0.8"/>
      </g>
     </g>
     <g id="text_11">
      <!-- 4 -->
      <g transform="translate(21.3 69.774127) scale(0.1 -0.1)">
       <use xlink:href="#DejaVuSans-34"/>
      </g>
     </g>
    </g>
    <g id="ytick_6">
     <g id="line2d_11">
      <g>
       <use xlink:href="#m7689f311c3" x="34.6625" y="24.905389" style="stroke: #000000; stroke-width: 0.8"/>
      </g>
     </g>
     <g id="text_12">
      <!-- 5 -->
      <g transform="translate(21.3 28.704608) scale(0.1 -0.1)">
       <defs>
        <path id="DejaVuSans-35" d="M 691 4666 
L 3169 4666 
L 3169 4134 
L 1269 4134 
L 1269 2991 
Q 1406 3038 1543 3061 
Q 1681 3084 1819 3084 
Q 2600 3084 3056 2656 
Q 3513 2228 3513 1497 
Q 3513 744 3044 326 
Q 2575 -91 1722 -91 
Q 1428 -91 1123 -41 
Q 819 9 494 109 
L 494 744 
Q 775 591 1075 516 
Q 1375 441 1709 441 
Q 2250 441 2565 725 
Q 2881 1009 2881 1497 
Q 2881 1984 2565 2268 
Q 2250 2553 1709 2553 
Q 1456 2553 1204 2497 
Q 953 2441 691 2322 
L 691 4666 
z
" transform="scale(0.015625)"/>
       </defs>
       <use xlink:href="#DejaVuSans-35"/>
      </g>
     </g>
    </g>
    <g id="text_13">
     <!-- $|h(t,x)|$ -->
     <g transform="translate(14.9 145.529186) rotate(-90) scale(0.1 -0.1)">
      <defs>
       <path id="DejaVuSans-7c" d="M 1344 4891 
L 1344 -1509 
L 813 -1509 
L 813 4891 
L 1344 4891 
z
" transform="scale(0.015625)"/>
       <path id="DejaVuSans-Oblique-68" d="M 3566 2113 
L 3156 0 
L 2578 0 
L 2988 2091 
Q 3016 2238 3031 2350 
Q 3047 2463 3047 2528 
Q 3047 2791 2881 2937 
Q 2716 3084 2419 3084 
Q 1956 3084 1617 2771 
Q 1278 2459 1178 1941 
L 800 0 
L 225 0 
L 1172 4863 
L 1747 4863 
L 1375 2950 
Q 1594 3244 1934 3414 
Q 2275 3584 2650 3584 
Q 3113 3584 3367 3334 
Q 3622 3084 3622 2631 
Q 3622 2519 3608 2391 
Q 3594 2263 3566 2113 
z
" transform="scale(0.015625)"/>
       <path id="DejaVuSans-28" d="M 1984 4856 
Q 1566 4138 1362 3434 
Q 1159 2731 1159 2009 
Q 1159 1288 1364 580 
Q 1569 -128 1984 -844 
L 1484 -844 
Q 1016 -109 783 600 
Q 550 1309 550 2009 
Q 550 2706 781 3412 
Q 1013 4119 1484 4856 
L 1984 4856 
z
" transform="scale(0.015625)"/>
       <path id="DejaVuSans-Oblique-74" d="M 2706 3500 
L 2619 3053 
L 1472 3053 
L 1100 1153 
Q 1081 1047 1072 975 
Q 1063 903 1063 863 
Q 1063 663 1183 572 
Q 1303 481 1569 481 
L 2150 481 
L 2053 0 
L 1503 0 
Q 991 0 739 200 
Q 488 400 488 806 
Q 488 878 497 964 
Q 506 1050 525 1153 
L 897 3053 
L 409 3053 
L 500 3500 
L 978 3500 
L 1172 4494 
L 1747 4494 
L 1556 3500 
L 2706 3500 
z
" transform="scale(0.015625)"/>
       <path id="DejaVuSans-2c" d="M 750 794 
L 1409 794 
L 1409 256 
L 897 -744 
L 494 -744 
L 750 256 
L 750 794 
z
" transform="scale(0.015625)"/>
       <path id="DejaVuSans-29" d="M 513 4856 
L 1013 4856 
Q 1481 4119 1714 3412 
Q 1947 2706 1947 2009 
Q 1947 1309 1714 600 
Q 1481 -109 1013 -844 
L 513 -844 
Q 928 -128 1133 580 
Q 1338 1288 1338 2009 
Q 1338 2731 1133 3434 
Q 928 4138 513 4856 
z
" transform="scale(0.015625)"/>
      </defs>
      <use xlink:href="#DejaVuSans-7c" transform="translate(0 0.578125)"/>
      <use xlink:href="#DejaVuSans-Oblique-68" transform="translate(33.691406 0.578125)"/>
      <use xlink:href="#DejaVuSans-28" transform="translate(97.070312 0.578125)"/>
      <use xlink:href="#DejaVuSans-Oblique-74" transform="translate(136.083984 0.578125)"/>
      <use xlink:href="#DejaVuSans-2c" transform="translate(175.292969 0.578125)"/>
      <use xlink:href="#DejaVuSans-Oblique-78" transform="translate(226.5625 0.578125)"/>
      <use xlink:href="#DejaVuSans-29" transform="translate(285.742188 0.578125)"/>
      <use xlink:href="#DejaVuSans-7c" transform="translate(324.755859 0.578125)"/>
     </g>
    </g>
   </g>
   <g id="line2d_12">
    <path d="M 38.769452 228.639273 
L 51.603676 228.539496 
L 64.437901 228.207929 
L 75.667848 227.669486 
L 85.293516 226.967993 
L 93.314906 226.194274 
L 102.940575 225.032917 
L 110.961965 223.849602 
L 118.983356 222.480299 
L 127.004746 220.867552 
L 133.421858 219.393069 
L 139.838971 217.690998 
L 146.256083 215.742903 
L 151.068917 214.099859 
L 157.486029 211.667824 
L 163.903142 209.024814 
L 171.924532 205.496328 
L 191.175869 196.923915 
L 202.405816 192.111899 
L 205.614372 190.47666 
L 208.822928 188.471297 
L 210.427206 187.261491 
L 212.031484 185.869846 
L 213.635762 184.248896 
L 215.24004 182.363881 
L 216.844318 180.181663 
L 218.448596 177.656857 
L 220.052874 174.753696 
L 221.657152 171.451233 
L 223.26143 167.731156 
L 224.865709 163.602376 
L 226.469987 159.085847 
L 229.678543 149.09497 
L 234.491377 133.248698 
L 236.095655 128.34649 
L 237.699933 123.952678 
L 239.304211 120.272126 
L 240.908489 117.485387 
L 242.512767 115.748736 
L 244.117045 115.155763 
L 245.721324 115.748736 
L 247.325602 117.485387 
L 248.92988 120.272126 
L 250.534158 123.952678 
L 252.138436 128.34649 
L 255.346992 138.461192 
L 260.159826 154.226907 
L 263.368382 163.602376 
L 264.97266 167.731156 
L 266.576939 171.451233 
L 268.181217 174.753696 
L 269.785495 177.656857 
L 271.389773 180.181663 
L 272.994051 182.363881 
L 274.598329 184.248896 
L 276.202607 185.869846 
L 277.806885 187.261491 
L 279.411163 188.471297 
L 282.619719 190.47666 
L 285.828275 192.111899 
L 292.245388 194.896829 
L 301.871056 199.019459 
L 329.143783 211.026962 
L 335.560896 213.515886 
L 341.978008 215.742903 
L 348.39512 217.690998 
L 354.812233 219.393069 
L 361.229345 220.867552 
L 369.250735 222.480299 
L 377.272126 223.849602 
L 385.293516 225.032917 
L 393.314906 226.018531 
L 402.940575 226.967993 
L 414.170521 227.761989 
L 425.400468 228.265993 
L 438.234693 228.563569 
L 447.860361 228.637577 
L 447.860361 228.637577 
" clip-path="url(#pd40bc4ff3d)" style="fill: none; stroke: #0000ff; stroke-width: 2; stroke-linecap: square"/>
   </g>
   <g id="line2d_13">
    <path d="M 38.769452 228.663344 
L 51.603676 228.566989 
L 62.833623 228.266898 
L 74.06357 227.738669 
L 83.689238 227.080848 
L 93.314906 226.208328 
L 102.940575 225.089961 
L 110.961965 223.941249 
L 118.983356 222.564371 
L 127.004746 220.924447 
L 133.421858 219.397308 
L 139.838971 217.657426 
L 146.256083 215.688021 
L 152.673195 213.478937 
L 159.090307 211.032612 
L 165.50742 208.37057 
L 175.133088 204.087752 
L 189.571591 197.620834 
L 204.010094 191.34994 
L 207.21865 189.558613 
L 208.822928 188.498111 
L 210.427206 187.286492 
L 212.031484 185.888178 
L 213.635762 184.264767 
L 215.24004 182.376146 
L 216.844318 180.182621 
L 218.448596 177.646836 
L 220.052874 174.736746 
L 221.657152 171.428417 
L 223.26143 167.709604 
L 224.865709 163.582979 
L 226.469987 159.0701 
L 229.678543 149.08957 
L 234.491377 133.238222 
L 236.095655 128.327099 
L 237.699933 123.92349 
L 239.304211 120.231183 
L 240.908489 117.438208 
L 242.512767 115.697649 
L 244.117045 115.109831 
L 245.721324 115.709301 
L 247.325602 117.460925 
L 248.92988 120.263731 
L 250.534158 123.964263 
L 252.138436 128.374001 
L 255.346992 138.508428 
L 260.159826 154.265056 
L 263.368382 163.624952 
L 264.97266 167.746896 
L 266.576939 171.460691 
L 268.181217 174.763845 
L 269.785495 177.668833 
L 271.389773 180.199786 
L 272.994051 182.388915 
L 274.598329 184.273658 
L 276.202607 185.893837 
L 277.806885 187.289414 
L 279.411163 188.498718 
L 282.619719 190.49694 
L 285.828275 192.12582 
L 290.64111 194.23754 
L 303.475334 199.69269 
L 327.539505 210.343792 
L 333.956618 212.854003 
L 340.37373 215.131263 
L 346.790842 217.167517 
L 353.207955 218.969363 
L 359.625067 220.55188 
L 366.042179 221.934211 
L 374.06357 223.411053 
L 382.08496 224.643691 
L 390.10635 225.66494 
L 399.732019 226.64957 
L 409.357687 227.406644 
L 420.587634 228.040724 
L 431.81758 228.440158 
L 443.047527 228.63306 
L 447.860361 228.658211 
L 447.860361 228.658211 
" clip-path="url(#pd40bc4ff3d)" style="fill: none; stroke-dasharray: 7.4,3.2; stroke-dashoffset: 0; stroke: #ff0000; stroke-width: 2"/>
   </g>
   <g id="patch_3">
    <path d="M 34.6625 234.359935 
L 34.6625 20.798438 
" style="fill: none; stroke: #000000; stroke-width: 0.8; stroke-linejoin: miter; stroke-linecap: square"/>
   </g>
   <g id="patch_4">
    <path d="M 453.571591 234.359935 
L 453.571591 20.798438 
" style="fill: none; stroke: #000000; stroke-width: 0.8; stroke-linejoin: miter; stroke-linecap: square"/>
   </g>
   <g id="patch_5">
    <path d="M 34.6625 234.359935 
L 453.571591 234.359935 
" style="fill: none; stroke: #000000; stroke-width: 0.8; stroke-linejoin: miter; stroke-linecap: square"/>
   </g>
   <g id="patch_6">
    <path d="M 34.6625 20.798438 
L 453.571591 20.798438 
" style="fill: none; stroke: #000000; stroke-width: 0.8; stroke-linejoin: miter; stroke-linecap: square"/>
   </g>
   <g id="text_14">
    <!-- $t = 0.47$ -->
    <g transform="translate(224.867045 14.798438) scale(0.1 -0.1)">
     <defs>
      <path id="DejaVuSans-3d" d="M 678 2906 
L 4684 2906 
L 4684 2381 
L 678 2381 
L 678 2906 
z
M 678 1631 
L 4684 1631 
L 4684 1100 
L 678 1100 
L 678 1631 
z
" transform="scale(0.015625)"/>
      <path id="DejaVuSans-2e" d="M 684 794 
L 1344 794 
L 1344 0 
L 684 0 
L 684 794 
z
" transform="scale(0.015625)"/>
      <path id="DejaVuSans-37" d="M 525 4666 
L 3525 4666 
L 3525 4397 
L 1831 0 
L 1172 0 
L 2766 4134 
L 525 4134 
L 525 4666 
z
" transform="scale(0.015625)"/>
     </defs>
     <use xlink:href="#DejaVuSans-Oblique-74" transform="translate(0 0.78125)"/>
     <use xlink:href="#DejaVuSans-3d" transform="translate(58.691406 0.78125)"/>
     <use xlink:href="#DejaVuSans-30" transform="translate(161.962891 0.78125)"/>
     <use xlink:href="#DejaVuSans-2e" transform="translate(225.585938 0.78125)"/>
     <use xlink:href="#DejaVuSans-34" transform="translate(257.373047 0.78125)"/>
     <use xlink:href="#DejaVuSans-37" transform="translate(320.996094 0.78125)"/>
    </g>
   </g>
  </g>
  <g id="axes_2">
   <g id="patch_7">
    <path d="M 663.026136 234.359935 
L 1081.935227 234.359935 
L 1081.935227 20.798438 
L 663.026136 20.798438 
z
" style="fill: #ffffff"/>
   </g>
   <g id="matplotlib.axis_3">
    <g id="xtick_6">
     <g id="line2d_14">
      <g>
       <use xlink:href="#m573bbfd4ee" x="708.202607" y="234.359935" style="stroke: #000000; stroke-width: 0.8"/>
      </g>
     </g>
     <g id="text_15">
      <!-- −4 -->
      <g transform="translate(700.831513 248.958372) scale(0.1 -0.1)">
       <use xlink:href="#DejaVuSans-2212"/>
       <use xlink:href="#DejaVuSans-34" x="83.789062"/>
      </g>
     </g>
    </g>
    <g id="xtick_7">
     <g id="line2d_15">
      <g>
       <use xlink:href="#m573bbfd4ee" x="790.341644" y="234.359935" style="stroke: #000000; stroke-width: 0.8"/>
      </g>
     </g>
     <g id="text_16">
      <!-- −2 -->
      <g transform="translate(782.970551 248.958372) scale(0.1 -0.1)">
       <use xlink:href="#DejaVuSans-2212"/>
       <use xlink:href="#DejaVuSans-32" x="83.789062"/>
      </g>
     </g>
    </g>
    <g id="xtick_8">
     <g id="line2d_16">
      <g>
       <use xlink:href="#m573bbfd4ee" x="872.480682" y="234.359935" style="stroke: #000000; stroke-width: 0.8"/>
      </g>
     </g>
     <g id="text_17">
      <!-- 0 -->
      <g transform="translate(869.299432 248.958372) scale(0.1 -0.1)">
       <use xlink:href="#DejaVuSans-30"/>
      </g>
     </g>
    </g>
    <g id="xtick_9">
     <g id="line2d_17">
      <g>
       <use xlink:href="#m573bbfd4ee" x="954.619719" y="234.359935" style="stroke: #000000; stroke-width: 0.8"/>
      </g>
     </g>
     <g id="text_18">
      <!-- 2 -->
      <g transform="translate(951.438469 248.958372) scale(0.1 -0.1)">
       <use xlink:href="#DejaVuSans-32"/>
      </g>
     </g>
    </g>
    <g id="xtick_10">
     <g id="line2d_18">
      <g>
       <use xlink:href="#m573bbfd4ee" x="1036.758757" y="234.359935" style="stroke: #000000; stroke-width: 0.8"/>
      </g>
     </g>
     <g id="text_19">
      <!-- 4 -->
      <g transform="translate(1033.577507 248.958372) scale(0.1 -0.1)">
       <use xlink:href="#DejaVuSans-34"/>
      </g>
     </g>
    </g>
    <g id="text_20">
     <!-- $x$ -->
     <g transform="translate(869.480682 262.636497) scale(0.1 -0.1)">
      <use xlink:href="#DejaVuSans-Oblique-78" transform="translate(0 0.3125)"/>
     </g>
    </g>
   </g>
   <g id="matplotlib.axis_4">
    <g id="ytick_7">
     <g id="line2d_19">
      <g>
       <use xlink:href="#m7689f311c3" x="663.026136" y="230.252983" style="stroke: #000000; stroke-width: 0.8"/>
      </g>
     </g>
     <g id="text_21">
      <!-- 0 -->
      <g transform="translate(649.663636 234.052202) scale(0.1 -0.1)">
       <use xlink:href="#DejaVuSans-30"/>
      </g>
     </g>
    </g>
    <g id="ytick_8">
     <g id="line2d_20">
      <g>
       <use xlink:href="#m7689f311c3" x="663.026136" y="189.183464" style="stroke: #000000; stroke-width: 0.8"/>
      </g>
     </g>
     <g id="text_22">
      <!-- 1 -->
      <g transform="translate(649.663636 192.982683) scale(0.1 -0.1)">
       <use xlink:href="#DejaVuSans-31"/>
      </g>
     </g>
    </g>
    <g id="ytick_9">
     <g id="line2d_21">
      <g>
       <use xlink:href="#m7689f311c3" x="663.026136" y="148.113946" style="stroke: #000000; stroke-width: 0.8"/>
      </g>
     </g>
     <g id="text_23">
      <!-- 2 -->
      <g transform="translate(649.663636 151.913164) scale(0.1 -0.1)">
       <use xlink:href="#DejaVuSans-32"/>
      </g>
     </g>
    </g>
    <g id="ytick_10">
     <g id="line2d_22">
      <g>
       <use xlink:href="#m7689f311c3" x="663.026136" y="107.044427" style="stroke: #000000; stroke-width: 0.8"/>
      </g>
     </g>
     <g id="text_24">
      <!-- 3 -->
      <g transform="translate(649.663636 110.843646) scale(0.1 -0.1)">
       <use xlink:href="#DejaVuSans-33"/>
      </g>
     </g>
    </g>
    <g id="ytick_11">
     <g id="line2d_23">
      <g>
       <use xlink:href="#m7689f311c3" x="663.026136" y="65.974908" style="stroke: #000000; stroke-width: 0.8"/>
      </g>
     </g>
     <g id="text_25">
      <!-- 4 -->
      <g transform="translate(649.663636 69.774127) scale(0.1 -0.1)">
       <use xlink:href="#DejaVuSans-34"/>
      </g>
     </g>
    </g>
    <g id="ytick_12">
     <g id="line2d_24">
      <g>
       <use xlink:href="#m7689f311c3" x="663.026136" y="24.905389" style="stroke: #000000; stroke-width: 0.8"/>
      </g>
     </g>
     <g id="text_26">
      <!-- 5 -->
      <g transform="translate(649.663636 28.704608) scale(0.1 -0.1)">
       <use xlink:href="#DejaVuSans-35"/>
      </g>
     </g>
    </g>
    <g id="text_27">
     <!-- $|h(t,x)|$ -->
     <g transform="translate(643.263636 145.529186) rotate(-90) scale(0.1 -0.1)">
      <use xlink:href="#DejaVuSans-7c" transform="translate(0 0.578125)"/>
      <use xlink:href="#DejaVuSans-Oblique-68" transform="translate(33.691406 0.578125)"/>
      <use xlink:href="#DejaVuSans-28" transform="translate(97.070312 0.578125)"/>
      <use xlink:href="#DejaVuSans-Oblique-74" transform="translate(136.083984 0.578125)"/>
      <use xlink:href="#DejaVuSans-2c" transform="translate(175.292969 0.578125)"/>
      <use xlink:href="#DejaVuSans-Oblique-78" transform="translate(226.5625 0.578125)"/>
      <use xlink:href="#DejaVuSans-29" transform="translate(285.742188 0.578125)"/>
      <use xlink:href="#DejaVuSans-7c" transform="translate(324.755859 0.578125)"/>
     </g>
    </g>
   </g>
   <g id="line2d_25">
    <path d="M 667.133088 228.475156 
L 681.571591 228.346717 
L 692.801537 228.07064 
L 705.635762 227.490169 
L 715.26143 226.834358 
L 723.282821 226.097322 
L 731.304211 225.173391 
L 739.325602 224.048761 
L 747.346992 222.636936 
L 755.368382 220.995265 
L 761.785495 219.481644 
L 769.806885 217.320088 
L 777.828275 214.865045 
L 787.453944 211.662344 
L 805.101003 205.668002 
L 809.913837 204.398407 
L 813.122393 203.784286 
L 816.330949 203.42309 
L 819.539505 203.380794 
L 822.748061 203.720497 
L 824.35234 204.070409 
L 825.956618 204.565343 
L 827.560896 205.216641 
L 829.165174 206.041452 
L 830.769452 207.056584 
L 832.37373 208.284388 
L 833.978008 209.753715 
L 835.582286 211.485784 
L 837.186564 213.516582 
L 838.790842 215.877726 
L 840.39512 218.617362 
L 841.999398 221.782644 
L 843.603676 225.423116 
L 845.207955 229.596614 
L 846.812233 226.136031 
L 848.416511 220.675687 
L 850.020789 214.445195 
L 851.625067 207.345899 
L 853.229345 199.279358 
L 854.833623 190.147209 
L 856.437901 179.86819 
L 858.042179 168.394309 
L 859.646457 155.737294 
L 862.855013 127.542793 
L 866.06357 98.433738 
L 867.667848 85.517082 
L 869.272126 75.141067 
L 870.876404 68.377606 
L 872.480682 66.025907 
L 874.08496 68.377606 
L 875.689238 75.141067 
L 877.293516 85.517082 
L 878.897794 98.433738 
L 885.314906 155.737294 
L 886.919184 168.394309 
L 888.523463 179.86819 
L 890.127741 190.147209 
L 891.732019 199.279358 
L 893.336297 207.345899 
L 894.940575 214.445195 
L 896.544853 220.675687 
L 898.149131 226.136031 
L 899.753409 229.596614 
L 901.357687 225.423116 
L 902.961965 221.782644 
L 904.566243 218.617362 
L 906.170521 215.877726 
L 907.774799 213.516582 
L 909.379078 211.485784 
L 910.983356 209.753715 
L 912.587634 208.284388 
L 914.191912 207.056584 
L 915.79619 206.041452 
L 917.400468 205.216641 
L 919.004746 204.565343 
L 920.609024 204.070409 
L 922.213302 203.720497 
L 925.421858 203.380794 
L 928.630414 203.42309 
L 931.838971 203.784286 
L 935.047527 204.398407 
L 938.256083 205.209997 
L 943.068917 206.659071 
L 949.486029 208.846264 
L 962.320254 213.296286 
L 971.945922 216.371139 
L 979.967313 218.648949 
L 986.384425 220.268231 
L 992.801537 221.678711 
L 1000.822928 223.229865 
L 1008.844318 224.529072 
L 1016.865709 225.55978 
L 1024.887099 226.414824 
L 1032.908489 227.079354 
L 1042.534158 227.663714 
L 1055.368382 228.170548 
L 1066.598329 228.3815 
L 1076.223997 228.472232 
L 1076.223997 228.472232 
" clip-path="url(#p4129a916e5)" style="fill: none; stroke: #0000ff; stroke-width: 2; stroke-linecap: square"/>
   </g>
   <g id="line2d_26">
    <path d="M 667.133088 228.521573 
L 679.967313 228.423716 
L 691.197259 228.140741 
L 702.427206 227.642907 
L 712.052874 227.018633 
L 721.678543 226.184427 
L 731.304211 225.107648 
L 739.325602 223.995222 
L 747.346992 222.65643 
L 755.368382 221.058692 
L 761.785495 219.572543 
L 768.202607 217.887969 
L 774.619719 216.001167 
L 782.64111 213.378612 
L 793.871056 209.387846 
L 801.892447 206.605639 
L 806.705281 205.149992 
L 809.913837 204.346849 
L 813.122393 203.734883 
L 816.330949 203.373739 
L 819.539505 203.334195 
L 821.143783 203.46055 
L 822.748061 203.699902 
L 824.35234 204.065141 
L 825.956618 204.570576 
L 827.560896 205.231819 
L 829.165174 206.066156 
L 830.769452 207.092711 
L 832.37373 208.333001 
L 833.978008 209.811134 
L 835.582286 211.554201 
L 837.186564 213.59318 
L 838.790842 215.963397 
L 840.39512 218.705253 
L 841.999398 221.86531 
L 843.603676 225.497078 
L 845.207955 229.661415 
L 846.812233 226.075318 
L 848.416511 220.624117 
L 850.020789 214.401303 
L 851.625067 207.310717 
L 853.229345 199.251846 
L 854.833623 190.12691 
L 856.437901 179.853051 
L 858.042179 168.381836 
L 859.646457 155.729405 
L 862.855013 127.52539 
L 866.06357 98.40882 
L 867.667848 85.496663 
L 869.272126 75.126421 
L 870.876404 68.376704 
L 872.480682 66.040111 
L 874.08496 68.407773 
L 875.689238 75.183928 
L 877.293516 85.573646 
L 878.897794 98.497396 
L 885.314906 155.809677 
L 886.919184 168.455538 
L 888.523463 179.921192 
L 890.127741 190.190811 
L 891.732019 199.312597 
L 893.336297 207.369078 
L 894.940575 214.457713 
L 896.544853 220.678837 
L 898.149131 226.128565 
L 899.753409 229.610187 
L 901.357687 225.446406 
L 902.961965 221.815419 
L 904.566243 218.65574 
L 906.170521 215.913992 
L 907.774799 213.543648 
L 909.379078 211.504257 
L 910.983356 209.760793 
L 912.587634 208.282273 
L 914.191912 207.04178 
L 915.79619 206.015143 
L 917.400468 205.181134 
L 919.004746 204.520484 
L 920.609024 204.016001 
L 922.213302 203.651959 
L 923.81758 203.414167 
L 927.026136 203.266091 
L 930.234693 203.480156 
L 933.443249 203.978993 
L 936.651805 204.697359 
L 941.464639 206.069279 
L 947.881751 208.226908 
L 967.133088 214.98229 
L 973.550201 216.968116 
L 979.967313 218.75295 
L 986.384425 220.334484 
L 992.801537 221.722232 
L 1000.822928 223.208101 
L 1008.844318 224.449134 
L 1016.865709 225.477371 
L 1026.491377 226.469209 
L 1036.117045 227.232774 
L 1047.346992 227.874253 
L 1058.576939 228.281672 
L 1071.411163 228.499212 
L 1076.223997 228.519928 
L 1076.223997 228.519928 
" clip-path="url(#p4129a916e5)" style="fill: none; stroke-dasharray: 7.4,3.2; stroke-dashoffset: 0; stroke: #ff0000; stroke-width: 2"/>
   </g>
   <g id="patch_8">
    <path d="M 663.026136 234.359935 
L 663.026136 20.798438 
" style="fill: none; stroke: #000000; stroke-width: 0.8; stroke-linejoin: miter; stroke-linecap: square"/>
   </g>
   <g id="patch_9">
    <path d="M 1081.935227 234.359935 
L 1081.935227 20.798438 
" style="fill: none; stroke: #000000; stroke-width: 0.8; stroke-linejoin: miter; stroke-linecap: square"/>
   </g>
   <g id="patch_10">
    <path d="M 663.026136 234.359935 
L 1081.935227 234.359935 
" style="fill: none; stroke: #000000; stroke-width: 0.8; stroke-linejoin: miter; stroke-linecap: square"/>
   </g>
   <g id="patch_11">
    <path d="M 663.026136 20.798438 
L 1081.935227 20.798438 
" style="fill: none; stroke: #000000; stroke-width: 0.8; stroke-linejoin: miter; stroke-linecap: square"/>
   </g>
   <g id="text_28">
    <!-- $t = 0.79$ -->
    <g transform="translate(853.630682 14.798438) scale(0.1 -0.1)">
     <defs>
      <path id="DejaVuSans-39" d="M 703 97 
L 703 672 
Q 941 559 1184 500 
Q 1428 441 1663 441 
Q 2288 441 2617 861 
Q 2947 1281 2994 2138 
Q 2813 1869 2534 1725 
Q 2256 1581 1919 1581 
Q 1219 1581 811 2004 
Q 403 2428 403 3163 
Q 403 3881 828 4315 
Q 1253 4750 1959 4750 
Q 2769 4750 3195 4129 
Q 3622 3509 3622 2328 
Q 3622 1225 3098 567 
Q 2575 -91 1691 -91 
Q 1453 -91 1209 -44 
Q 966 3 703 97 
z
M 1959 2075 
Q 2384 2075 2632 2365 
Q 2881 2656 2881 3163 
Q 2881 3666 2632 3958 
Q 2384 4250 1959 4250 
Q 1534 4250 1286 3958 
Q 1038 3666 1038 3163 
Q 1038 2656 1286 2365 
Q 1534 2075 1959 2075 
z
" transform="scale(0.015625)"/>
     </defs>
     <use xlink:href="#DejaVuSans-Oblique-74" transform="translate(0 0.78125)"/>
     <use xlink:href="#DejaVuSans-3d" transform="translate(58.691406 0.78125)"/>
     <use xlink:href="#DejaVuSans-30" transform="translate(161.962891 0.78125)"/>
     <use xlink:href="#DejaVuSans-2e" transform="translate(225.585938 0.78125)"/>
     <use xlink:href="#DejaVuSans-37" transform="translate(249.623047 0.78125)"/>
     <use xlink:href="#DejaVuSans-39" transform="translate(313.246094 0.78125)"/>
    </g>
   </g>
   <g id="legend_1">
    <g id="line2d_27">
     <path d="M 795.751776 418.30757 
L 805.751776 418.30757 
L 815.751776 418.30757 
" style="fill: none; stroke: #0000ff; stroke-width: 2; stroke-linecap: square"/>
    </g>
    <g id="text_29">
     <!-- Exact -->
     <g transform="translate(823.751776 421.80757) scale(0.1 -0.1)">
      <defs>
       <path id="DejaVuSans-45" d="M 628 4666 
L 3578 4666 
L 3578 4134 
L 1259 4134 
L 1259 2753 
L 3481 2753 
L 3481 2222 
L 1259 2222 
L 1259 531 
L 3634 531 
L 3634 0 
L 628 0 
L 628 4666 
z
" transform="scale(0.015625)"/>
       <path id="DejaVuSans-78" d="M 3513 3500 
L 2247 1797 
L 3578 0 
L 2900 0 
L 1881 1375 
L 863 0 
L 184 0 
L 1544 1831 
L 300 3500 
L 978 3500 
L 1906 2253 
L 2834 3500 
L 3513 3500 
z
" transform="scale(0.015625)"/>
       <path id="DejaVuSans-61" d="M 2194 1759 
Q 1497 1759 1228 1600 
Q 959 1441 959 1056 
Q 959 750 1161 570 
Q 1363 391 1709 391 
Q 2188 391 2477 730 
Q 2766 1069 2766 1631 
L 2766 1759 
L 2194 1759 
z
M 3341 1997 
L 3341 0 
L 2766 0 
L 2766 531 
Q 2569 213 2275 61 
Q 1981 -91 1556 -91 
Q 1019 -91 701 211 
Q 384 513 384 1019 
Q 384 1609 779 1909 
Q 1175 2209 1959 2209 
L 2766 2209 
L 2766 2266 
Q 2766 2663 2505 2880 
Q 2244 3097 1772 3097 
Q 1472 3097 1187 3025 
Q 903 2953 641 2809 
L 641 3341 
Q 956 3463 1253 3523 
Q 1550 3584 1831 3584 
Q 2591 3584 2966 3190 
Q 3341 2797 3341 1997 
z
" transform="scale(0.015625)"/>
       <path id="DejaVuSans-63" d="M 3122 3366 
L 3122 2828 
Q 2878 2963 2633 3030 
Q 2388 3097 2138 3097 
Q 1578 3097 1268 2742 
Q 959 2388 959 1747 
Q 959 1106 1268 751 
Q 1578 397 2138 397 
Q 2388 397 2633 464 
Q 2878 531 3122 666 
L 3122 134 
Q 2881 22 2623 -34 
Q 2366 -91 2075 -91 
Q 1284 -91 818 406 
Q 353 903 353 1747 
Q 353 2603 823 3093 
Q 1294 3584 2113 3584 
Q 2378 3584 2631 3529 
Q 2884 3475 3122 3366 
z
" transform="scale(0.015625)"/>
       <path id="DejaVuSans-74" d="M 1172 4494 
L 1172 3500 
L 2356 3500 
L 2356 3053 
L 1172 3053 
L 1172 1153 
Q 1172 725 1289 603 
Q 1406 481 1766 481 
L 2356 481 
L 2356 0 
L 1766 0 
Q 1100 0 847 248 
Q 594 497 594 1153 
L 594 3053 
L 172 3053 
L 172 3500 
L 594 3500 
L 594 4494 
L 1172 4494 
z
" transform="scale(0.015625)"/>
      </defs>
      <use xlink:href="#DejaVuSans-45"/>
      <use xlink:href="#DejaVuSans-78" x="63.183594"/>
      <use xlink:href="#DejaVuSans-61" x="122.363281"/>
      <use xlink:href="#DejaVuSans-63" x="183.642578"/>
      <use xlink:href="#DejaVuSans-74" x="238.623047"/>
     </g>
    </g>
    <g id="line2d_28">
     <path d="M 871.536151 418.30757 
L 881.536151 418.30757 
L 891.536151 418.30757 
" style="fill: none; stroke-dasharray: 7.4,3.2; stroke-dashoffset: 0; stroke: #ff0000; stroke-width: 2"/>
    </g>
    <g id="text_30">
     <!-- Prediction -->
     <g transform="translate(899.536151 421.80757) scale(0.1 -0.1)">
      <defs>
       <path id="DejaVuSans-50" d="M 1259 4147 
L 1259 2394 
L 2053 2394 
Q 2494 2394 2734 2622 
Q 2975 2850 2975 3272 
Q 2975 3691 2734 3919 
Q 2494 4147 2053 4147 
L 1259 4147 
z
M 628 4666 
L 2053 4666 
Q 2838 4666 3239 4311 
Q 3641 3956 3641 3272 
Q 3641 2581 3239 2228 
Q 2838 1875 2053 1875 
L 1259 1875 
L 1259 0 
L 628 0 
L 628 4666 
z
" transform="scale(0.015625)"/>
       <path id="DejaVuSans-72" d="M 2631 2963 
Q 2534 3019 2420 3045 
Q 2306 3072 2169 3072 
Q 1681 3072 1420 2755 
Q 1159 2438 1159 1844 
L 1159 0 
L 581 0 
L 581 3500 
L 1159 3500 
L 1159 2956 
Q 1341 3275 1631 3429 
Q 1922 3584 2338 3584 
Q 2397 3584 2469 3576 
Q 2541 3569 2628 3553 
L 2631 2963 
z
" transform="scale(0.015625)"/>
       <path id="DejaVuSans-65" d="M 3597 1894 
L 3597 1613 
L 953 1613 
Q 991 1019 1311 708 
Q 1631 397 2203 397 
Q 2534 397 2845 478 
Q 3156 559 3463 722 
L 3463 178 
Q 3153 47 2828 -22 
Q 2503 -91 2169 -91 
Q 1331 -91 842 396 
Q 353 884 353 1716 
Q 353 2575 817 3079 
Q 1281 3584 2069 3584 
Q 2775 3584 3186 3129 
Q 3597 2675 3597 1894 
z
M 3022 2063 
Q 3016 2534 2758 2815 
Q 2500 3097 2075 3097 
Q 1594 3097 1305 2825 
Q 1016 2553 972 2059 
L 3022 2063 
z
" transform="scale(0.015625)"/>
       <path id="DejaVuSans-64" d="M 2906 2969 
L 2906 4863 
L 3481 4863 
L 3481 0 
L 2906 0 
L 2906 525 
Q 2725 213 2448 61 
Q 2172 -91 1784 -91 
Q 1150 -91 751 415 
Q 353 922 353 1747 
Q 353 2572 751 3078 
Q 1150 3584 1784 3584 
Q 2172 3584 2448 3432 
Q 2725 3281 2906 2969 
z
M 947 1747 
Q 947 1113 1208 752 
Q 1469 391 1925 391 
Q 2381 391 2643 752 
Q 2906 1113 2906 1747 
Q 2906 2381 2643 2742 
Q 2381 3103 1925 3103 
Q 1469 3103 1208 2742 
Q 947 2381 947 1747 
z
" transform="scale(0.015625)"/>
       <path id="DejaVuSans-69" d="M 603 3500 
L 1178 3500 
L 1178 0 
L 603 0 
L 603 3500 
z
M 603 4863 
L 1178 4863 
L 1178 4134 
L 603 4134 
L 603 4863 
z
" transform="scale(0.015625)"/>
       <path id="DejaVuSans-6f" d="M 1959 3097 
Q 1497 3097 1228 2736 
Q 959 2375 959 1747 
Q 959 1119 1226 758 
Q 1494 397 1959 397 
Q 2419 397 2687 759 
Q 2956 1122 2956 1747 
Q 2956 2369 2687 2733 
Q 2419 3097 1959 3097 
z
M 1959 3584 
Q 2709 3584 3137 3096 
Q 3566 2609 3566 1747 
Q 3566 888 3137 398 
Q 2709 -91 1959 -91 
Q 1206 -91 779 398 
Q 353 888 353 1747 
Q 353 2609 779 3096 
Q 1206 3584 1959 3584 
z
" transform="scale(0.015625)"/>
       <path id="DejaVuSans-6e" d="M 3513 2113 
L 3513 0 
L 2938 0 
L 2938 2094 
Q 2938 2591 2744 2837 
Q 2550 3084 2163 3084 
Q 1697 3084 1428 2787 
Q 1159 2491 1159 1978 
L 1159 0 
L 581 0 
L 581 3500 
L 1159 3500 
L 1159 2956 
Q 1366 3272 1645 3428 
Q 1925 3584 2291 3584 
Q 2894 3584 3203 3211 
Q 3513 2838 3513 2113 
z
" transform="scale(0.015625)"/>
      </defs>
      <use xlink:href="#DejaVuSans-50"/>
      <use xlink:href="#DejaVuSans-72" x="58.552734"/>
      <use xlink:href="#DejaVuSans-65" x="97.416016"/>
      <use xlink:href="#DejaVuSans-64" x="158.939453"/>
      <use xlink:href="#DejaVuSans-69" x="222.416016"/>
      <use xlink:href="#DejaVuSans-63" x="250.199219"/>
      <use xlink:href="#DejaVuSans-74" x="305.179688"/>
      <use xlink:href="#DejaVuSans-69" x="344.388672"/>
      <use xlink:href="#DejaVuSans-6f" x="372.171875"/>
      <use xlink:href="#DejaVuSans-6e" x="433.353516"/>
     </g>
    </g>
   </g>
  </g>
  <g id="axes_3">
   <g id="patch_12">
    <path d="M 1291.389773 234.359935 
L 1710.298864 234.359935 
L 1710.298864 20.798438 
L 1291.389773 20.798438 
z
" style="fill: #ffffff"/>
   </g>
   <g id="matplotlib.axis_5">
    <g id="xtick_11">
     <g id="line2d_29">
      <g>
       <use xlink:href="#m573bbfd4ee" x="1336.566243" y="234.359935" style="stroke: #000000; stroke-width: 0.8"/>
      </g>
     </g>
     <g id="text_31">
      <!-- −4 -->
      <g transform="translate(1329.19515 248.958372) scale(0.1 -0.1)">
       <use xlink:href="#DejaVuSans-2212"/>
       <use xlink:href="#DejaVuSans-34" x="83.789062"/>
      </g>
     </g>
    </g>
    <g id="xtick_12">
     <g id="line2d_30">
      <g>
       <use xlink:href="#m573bbfd4ee" x="1418.705281" y="234.359935" style="stroke: #000000; stroke-width: 0.8"/>
      </g>
     </g>
     <g id="text_32">
      <!-- −2 -->
      <g transform="translate(1411.334187 248.958372) scale(0.1 -0.1)">
       <use xlink:href="#DejaVuSans-2212"/>
       <use xlink:href="#DejaVuSans-32" x="83.789062"/>
      </g>
     </g>
    </g>
    <g id="xtick_13">
     <g id="line2d_31">
      <g>
       <use xlink:href="#m573bbfd4ee" x="1500.844318" y="234.359935" style="stroke: #000000; stroke-width: 0.8"/>
      </g>
     </g>
     <g id="text_33">
      <!-- 0 -->
      <g transform="translate(1497.663068 248.958372) scale(0.1 -0.1)">
       <use xlink:href="#DejaVuSans-30"/>
      </g>
     </g>
    </g>
    <g id="xtick_14">
     <g id="line2d_32">
      <g>
       <use xlink:href="#m573bbfd4ee" x="1582.983356" y="234.359935" style="stroke: #000000; stroke-width: 0.8"/>
      </g>
     </g>
     <g id="text_34">
      <!-- 2 -->
      <g transform="translate(1579.802106 248.958372) scale(0.1 -0.1)">
       <use xlink:href="#DejaVuSans-32"/>
      </g>
     </g>
    </g>
    <g id="xtick_15">
     <g id="line2d_33">
      <g>
       <use xlink:href="#m573bbfd4ee" x="1665.122393" y="234.359935" style="stroke: #000000; stroke-width: 0.8"/>
      </g>
     </g>
     <g id="text_35">
      <!-- 4 -->
      <g transform="translate(1661.941143 248.958372) scale(0.1 -0.1)">
       <use xlink:href="#DejaVuSans-34"/>
      </g>
     </g>
    </g>
    <g id="text_36">
     <!-- $x$ -->
     <g transform="translate(1497.844318 262.636497) scale(0.1 -0.1)">
      <use xlink:href="#DejaVuSans-Oblique-78" transform="translate(0 0.3125)"/>
     </g>
    </g>
   </g>
   <g id="matplotlib.axis_6">
    <g id="ytick_13">
     <g id="line2d_34">
      <g>
       <use xlink:href="#m7689f311c3" x="1291.389773" y="230.252983" style="stroke: #000000; stroke-width: 0.8"/>
      </g>
     </g>
     <g id="text_37">
      <!-- 0 -->
      <g transform="translate(1278.027273 234.052202) scale(0.1 -0.1)">
       <use xlink:href="#DejaVuSans-30"/>
      </g>
     </g>
    </g>
    <g id="ytick_14">
     <g id="line2d_35">
      <g>
       <use xlink:href="#m7689f311c3" x="1291.389773" y="189.183464" style="stroke: #000000; stroke-width: 0.8"/>
      </g>
     </g>
     <g id="text_38">
      <!-- 1 -->
      <g transform="translate(1278.027273 192.982683) scale(0.1 -0.1)">
       <use xlink:href="#DejaVuSans-31"/>
      </g>
     </g>
    </g>
    <g id="ytick_15">
     <g id="line2d_36">
      <g>
       <use xlink:href="#m7689f311c3" x="1291.389773" y="148.113946" style="stroke: #000000; stroke-width: 0.8"/>
      </g>
     </g>
     <g id="text_39">
      <!-- 2 -->
      <g transform="translate(1278.027273 151.913164) scale(0.1 -0.1)">
       <use xlink:href="#DejaVuSans-32"/>
      </g>
     </g>
    </g>
    <g id="ytick_16">
     <g id="line2d_37">
      <g>
       <use xlink:href="#m7689f311c3" x="1291.389773" y="107.044427" style="stroke: #000000; stroke-width: 0.8"/>
      </g>
     </g>
     <g id="text_40">
      <!-- 3 -->
      <g transform="translate(1278.027273 110.843646) scale(0.1 -0.1)">
       <use xlink:href="#DejaVuSans-33"/>
      </g>
     </g>
    </g>
    <g id="ytick_17">
     <g id="line2d_38">
      <g>
       <use xlink:href="#m7689f311c3" x="1291.389773" y="65.974908" style="stroke: #000000; stroke-width: 0.8"/>
      </g>
     </g>
     <g id="text_41">
      <!-- 4 -->
      <g transform="translate(1278.027273 69.774127) scale(0.1 -0.1)">
       <use xlink:href="#DejaVuSans-34"/>
      </g>
     </g>
    </g>
    <g id="ytick_18">
     <g id="line2d_39">
      <g>
       <use xlink:href="#m7689f311c3" x="1291.389773" y="24.905389" style="stroke: #000000; stroke-width: 0.8"/>
      </g>
     </g>
     <g id="text_42">
      <!-- 5 -->
      <g transform="translate(1278.027273 28.704608) scale(0.1 -0.1)">
       <use xlink:href="#DejaVuSans-35"/>
      </g>
     </g>
    </g>
    <g id="text_43">
     <!-- $|h(t,x)|$ -->
     <g transform="translate(1271.627273 145.529186) rotate(-90) scale(0.1 -0.1)">
      <use xlink:href="#DejaVuSans-7c" transform="translate(0 0.578125)"/>
      <use xlink:href="#DejaVuSans-Oblique-68" transform="translate(33.691406 0.578125)"/>
      <use xlink:href="#DejaVuSans-28" transform="translate(97.070312 0.578125)"/>
      <use xlink:href="#DejaVuSans-Oblique-74" transform="translate(136.083984 0.578125)"/>
      <use xlink:href="#DejaVuSans-2c" transform="translate(175.292969 0.578125)"/>
      <use xlink:href="#DejaVuSans-Oblique-78" transform="translate(226.5625 0.578125)"/>
      <use xlink:href="#DejaVuSans-29" transform="translate(285.742188 0.578125)"/>
      <use xlink:href="#DejaVuSans-7c" transform="translate(324.755859 0.578125)"/>
     </g>
    </g>
   </g>
   <g id="line2d_40">
    <path d="M 1295.496725 228.386102 
L 1308.330949 228.26036 
L 1321.165174 227.988681 
L 1332.39512 227.497612 
L 1343.625067 226.780097 
L 1353.250735 225.926682 
L 1361.272126 224.989342 
L 1367.689238 224.063243 
L 1375.710628 222.693697 
L 1382.127741 221.4272 
L 1388.544853 219.933758 
L 1394.961965 218.22301 
L 1401.379078 216.305561 
L 1409.400468 213.644407 
L 1417.421858 210.723854 
L 1428.651805 206.417027 
L 1436.673195 203.465188 
L 1441.486029 201.96364 
L 1444.694586 201.111189 
L 1447.903142 200.427803 
L 1451.111698 199.928614 
L 1454.320254 199.636384 
L 1459.133088 199.509804 
L 1463.945922 199.411528 
L 1465.550201 199.249785 
L 1467.154479 198.946582 
L 1468.758757 198.42664 
L 1470.363035 197.605964 
L 1471.967313 196.382931 
L 1473.571591 194.661728 
L 1475.175869 192.346133 
L 1476.780147 189.336256 
L 1478.384425 185.564569 
L 1479.988703 180.983969 
L 1481.592981 175.557311 
L 1483.197259 169.278978 
L 1484.801537 162.186136 
L 1486.405816 154.34679 
L 1489.614372 136.987497 
L 1492.822928 119.02748 
L 1494.427206 110.753447 
L 1496.031484 103.589781 
L 1497.635762 98.029358 
L 1499.24004 94.494034 
L 1500.844318 93.278056 
L 1502.448596 94.494034 
L 1504.052874 98.029358 
L 1505.657152 103.589781 
L 1507.26143 110.753447 
L 1508.865709 119.02748 
L 1515.282821 154.34679 
L 1516.887099 162.186136 
L 1518.491377 169.278978 
L 1520.095655 175.557311 
L 1521.699933 180.983969 
L 1523.304211 185.564569 
L 1524.908489 189.336256 
L 1526.512767 192.346133 
L 1528.117045 194.661728 
L 1529.721324 196.382931 
L 1531.325602 197.605964 
L 1532.92988 198.42664 
L 1534.534158 198.946582 
L 1536.138436 199.249785 
L 1539.346992 199.483958 
L 1547.368382 199.636384 
L 1550.576939 199.928614 
L 1553.785495 200.427803 
L 1556.994051 201.111189 
L 1561.806885 202.439033 
L 1566.619719 204.019025 
L 1573.036832 206.417027 
L 1589.079612 212.501012 
L 1595.496725 214.739144 
L 1603.518115 217.290403 
L 1609.935227 219.105396 
L 1616.35234 220.716166 
L 1622.769452 222.080502 
L 1630.790842 223.542378 
L 1638.812233 224.776403 
L 1646.833623 225.758613 
L 1654.855013 226.521642 
L 1664.480682 227.229543 
L 1678.919184 227.933414 
L 1690.149131 228.21785 
L 1704.587634 228.383789 
L 1704.587634 228.383789 
" clip-path="url(#p78f3266a26)" style="fill: none; stroke: #0000ff; stroke-width: 2; stroke-linecap: square"/>
   </g>
   <g id="line2d_41">
    <path d="M 1295.496725 228.407877 
L 1308.330949 228.311512 
L 1321.165174 227.989406 
L 1332.39512 227.483583 
L 1342.020789 226.851627 
L 1351.646457 226.004797 
L 1359.667848 225.10781 
L 1367.689238 224.0082 
L 1375.710628 222.673651 
L 1382.127741 221.412535 
L 1388.544853 219.958904 
L 1394.961965 218.296047 
L 1401.379078 216.413391 
L 1407.79619 214.311849 
L 1415.81758 211.40984 
L 1428.651805 206.418274 
L 1435.068917 204.015688 
L 1439.881751 202.405823 
L 1444.694586 201.071205 
L 1447.903142 200.384542 
L 1451.111698 199.88877 
L 1454.320254 199.593133 
L 1459.133088 199.468354 
L 1463.945922 199.403359 
L 1465.550201 199.256429 
L 1467.154479 198.960924 
L 1468.758757 198.444765 
L 1470.363035 197.622122 
L 1471.967313 196.396921 
L 1473.571591 194.66808 
L 1475.175869 192.33726 
L 1476.780147 189.316524 
L 1478.384425 185.534378 
L 1479.988703 180.939566 
L 1481.592981 175.503753 
L 1483.197259 169.224307 
L 1484.801537 162.130042 
L 1486.405816 154.290304 
L 1489.614372 136.93097 
L 1492.822928 119.001517 
L 1494.427206 110.757541 
L 1496.031484 103.623733 
L 1497.635762 98.088591 
L 1499.24004 94.577383 
L 1500.844318 93.381978 
L 1502.448596 94.605681 
L 1504.052874 98.142593 
L 1505.657152 103.698826 
L 1507.26143 110.848076 
L 1508.865709 119.101902 
L 1515.282821 154.391398 
L 1516.887099 162.227186 
L 1518.491377 169.316516 
L 1520.095655 175.589744 
L 1521.699933 181.017925 
L 1523.304211 185.603743 
L 1524.908489 189.376131 
L 1526.512767 192.386848 
L 1528.117045 194.707835 
L 1529.721324 196.427408 
L 1531.325602 197.643963 
L 1532.92988 198.458322 
L 1534.534158 198.966542 
L 1536.138436 199.254165 
L 1539.346992 199.442078 
L 1547.368382 199.54378 
L 1550.576939 199.83175 
L 1553.785495 200.323398 
L 1556.994051 201.009253 
L 1561.806885 202.348135 
L 1566.619719 203.967268 
L 1573.036832 206.386669 
L 1590.68389 213.192035 
L 1597.101003 215.40197 
L 1603.518115 217.39493 
L 1609.935227 219.162991 
L 1616.35234 220.713578 
L 1622.769452 222.06238 
L 1630.790842 223.494276 
L 1638.812233 224.679633 
L 1646.833623 225.653303 
L 1656.459291 226.583057 
L 1666.08496 227.289595 
L 1677.314906 227.871628 
L 1688.544853 228.228266 
L 1701.379078 228.400194 
L 1704.587634 228.408272 
L 1704.587634 228.408272 
" clip-path="url(#p78f3266a26)" style="fill: none; stroke-dasharray: 7.4,3.2; stroke-dashoffset: 0; stroke: #ff0000; stroke-width: 2"/>
   </g>
   <g id="patch_13">
    <path d="M 1291.389773 234.359935 
L 1291.389773 20.798438 
" style="fill: none; stroke: #000000; stroke-width: 0.8; stroke-linejoin: miter; stroke-linecap: square"/>
   </g>
   <g id="patch_14">
    <path d="M 1710.298864 234.359935 
L 1710.298864 20.798438 
" style="fill: none; stroke: #000000; stroke-width: 0.8; stroke-linejoin: miter; stroke-linecap: square"/>
   </g>
   <g id="patch_15">
    <path d="M 1291.389773 234.359935 
L 1710.298864 234.359935 
" style="fill: none; stroke: #000000; stroke-width: 0.8; stroke-linejoin: miter; stroke-linecap: square"/>
   </g>
   <g id="patch_16">
    <path d="M 1291.389773 20.798438 
L 1710.298864 20.798438 
" style="fill: none; stroke: #000000; stroke-width: 0.8; stroke-linejoin: miter; stroke-linecap: square"/>
   </g>
   <g id="text_44">
    <!-- $t = 0.98$ -->
    <g transform="translate(1481.594318 14.798438) scale(0.1 -0.1)">
     <defs>
      <path id="DejaVuSans-38" d="M 2034 2216 
Q 1584 2216 1326 1975 
Q 1069 1734 1069 1313 
Q 1069 891 1326 650 
Q 1584 409 2034 409 
Q 2484 409 2743 651 
Q 3003 894 3003 1313 
Q 3003 1734 2745 1975 
Q 2488 2216 2034 2216 
z
M 1403 2484 
Q 997 2584 770 2862 
Q 544 3141 544 3541 
Q 544 4100 942 4425 
Q 1341 4750 2034 4750 
Q 2731 4750 3128 4425 
Q 3525 4100 3525 3541 
Q 3525 3141 3298 2862 
Q 3072 2584 2669 2484 
Q 3125 2378 3379 2068 
Q 3634 1759 3634 1313 
Q 3634 634 3220 271 
Q 2806 -91 2034 -91 
Q 1263 -91 848 271 
Q 434 634 434 1313 
Q 434 1759 690 2068 
Q 947 2378 1403 2484 
z
M 1172 3481 
Q 1172 3119 1398 2916 
Q 1625 2713 2034 2713 
Q 2441 2713 2670 2916 
Q 2900 3119 2900 3481 
Q 2900 3844 2670 4047 
Q 2441 4250 2034 4250 
Q 1625 4250 1398 4047 
Q 1172 3844 1172 3481 
z
" transform="scale(0.015625)"/>
     </defs>
     <use xlink:href="#DejaVuSans-Oblique-74" transform="translate(0 0.78125)"/>
     <use xlink:href="#DejaVuSans-3d" transform="translate(58.691406 0.78125)"/>
     <use xlink:href="#DejaVuSans-30" transform="translate(161.962891 0.78125)"/>
     <use xlink:href="#DejaVuSans-2e" transform="translate(225.585938 0.78125)"/>
     <use xlink:href="#DejaVuSans-39" transform="translate(257.373047 0.78125)"/>
     <use xlink:href="#DejaVuSans-38" transform="translate(320.996094 0.78125)"/>
    </g>
   </g>
  </g>
 </g>
 <defs>
  <clipPath id="pd40bc4ff3d">
   <rect x="34.6625" y="20.798438" width="418.909091" height="213.561497"/>
  </clipPath>
  <clipPath id="p4129a916e5">
   <rect x="663.026136" y="20.798438" width="418.909091" height="213.561497"/>
  </clipPath>
  <clipPath id="p78f3266a26">
   <rect x="1291.389773" y="20.798438" width="418.909091" height="213.561497"/>
  </clipPath>
 </defs>
</svg>
